<svg data-name="light bulb -1" height="95.15" id="light_bulb_-1" viewBox="0 0 95.151 95.15" width="95.151"
     xmlns="http://www.w3.org/2000/svg">
  <g data-name="Group 2" id="Group_2" transform="translate(16.997 0)">
    <g data-name="Group 1" id="Group_1">
      <path
        d="M143.619,8.887A30.388,30.388,0,0,0,122.061,0h-.222A30.6,30.6,0,0,0,100,51.808a25.173,25.173,0,0,1,6.993,17.559V82.132a5.583,5.583,0,0,0,4.264,5.417v1.7a5.907,5.907,0,0,0,5.9,5.9h9.757a5.907,5.907,0,0,0,5.9-5.9V87.559a5.583,5.583,0,0,0,4.306-5.427V69.368a25.834,25.834,0,0,1,7.185-17.762,30.6,30.6,0,0,0-.689-42.72ZM129.1,89.251a2.186,2.186,0,0,1-2.184,2.184h-9.757a2.186,2.186,0,0,1-2.184-2.184V87.706H129.1Zm4.306-7.12a1.86,1.86,0,0,1-1.858,1.858H112.57a1.86,1.86,0,0,1-1.858-1.858V71.562h22.694ZM119.139,67.845V44.339h5.79V67.845h-5.79Zm22.466-18.791a29.608,29.608,0,0,0-8.16,18.791h-4.8V44.339h1.67a5.394,5.394,0,0,0,5.387-5.387v-.288a5.387,5.387,0,1,0-10.775,0v1.959h-5.79V38.663a5.393,5.393,0,0,0-5.387-5.387h-.366A5.393,5.393,0,0,0,108,38.663v.288a5.393,5.393,0,0,0,5.387,5.387h2.036V67.845h-4.749a28.8,28.8,0,0,0-7.993-18.613A26.7,26.7,0,0,1,95.186,29.85,27.093,27.093,0,0,1,121.864,3.718a26.881,26.881,0,0,1,19.741,45.336Zm-12.96-8.432V38.663a1.67,1.67,0,1,1,3.341,0v.288a1.672,1.672,0,0,1-1.671,1.671Zm-13.224-1.959v1.959h-2.036a1.672,1.672,0,0,1-1.67-1.671v-.288a1.672,1.672,0,0,1,1.67-1.671h.366A1.673,1.673,0,0,1,115.422,38.663Z"
        data-name="Path 1" fill="#fff" id="Path_1" transform="translate(-91.459 -0.001)"/>
    </g>
  </g>
  <g data-name="Group 4" id="Group_4" transform="translate(45.53 9.059)">
    <g data-name="Group 3" id="Group_3">
      <path
        d="M266.984,62.244A21.545,21.545,0,0,0,246.842,48.75a1.858,1.858,0,0,0,.013,3.717H247a17.734,17.734,0,0,1,16.538,11.167,1.858,1.858,0,1,0,3.447-1.389Z"
        data-name="Path 2" fill="#fff" id="Path_2" transform="translate(-244.997 -48.749)"/>
    </g>
  </g>
  <g data-name="Group 6" id="Group_6" transform="translate(65.355 28.74)">
    <g data-name="Group 5" id="Group_5">
      <path d="M354.842,155.2a1.858,1.858,0,1,0,.544,1.314A1.873,1.873,0,0,0,354.842,155.2Z" data-name="Path 3"
            fill="#fff" id="Path_3" transform="translate(-351.67 -154.651)"/>
    </g>
  </g>
  <g data-name="Group 8" id="Group_8" transform="translate(79.675 8.712)">
    <g data-name="Group 7" id="Group_7">
      <path
        d="M435.362,47.425a1.859,1.859,0,0,0-2.628,0l-3.462,3.462a1.859,1.859,0,0,0,2.628,2.628l3.462-3.462A1.858,1.858,0,0,0,435.362,47.425Z"
        data-name="Path 4" fill="#fff" id="Path_4" transform="translate(-428.727 -46.88)"/>
    </g>
  </g>
  <g data-name="Group 10" id="Group_10" transform="translate(79.675 45.307)">
    <g data-name="Group 9" id="Group_9">
      <path d="M435.362,247.8l-3.462-3.462a1.859,1.859,0,1,0-2.628,2.628l3.462,3.462a1.858,1.858,0,0,0,2.628-2.628Z"
            data-name="Path 5" fill="#fff" id="Path_5" transform="translate(-428.727 -243.798)"/>
    </g>
  </g>
  <g data-name="Group 12" id="Group_12" transform="translate(86.537 28.741)">
    <g data-name="Group 11" id="Group_11">
      <path d="M472.406,154.655h-4.9a1.858,1.858,0,1,0,0,3.717h4.9a1.858,1.858,0,0,0,0-3.717Z" data-name="Path 6"
            fill="#fff" id="Path_6" transform="translate(-465.651 -154.655)"/>
    </g>
  </g>
  <g data-name="Group 14" id="Group_14" transform="translate(8.296 8.712)">
    <g data-name="Group 13" id="Group_13">
      <path d="M51.276,50.888l-3.462-3.462a1.859,1.859,0,1,0-2.628,2.628l3.462,3.462a1.858,1.858,0,0,0,2.628-2.628Z"
            data-name="Path 7" fill="#fff" id="Path_7" transform="translate(-44.641 -46.881)"/>
    </g>
  </g>
  <g data-name="Group 16" id="Group_16" transform="translate(8.296 45.307)">
    <g data-name="Group 15" id="Group_15">
      <path
        d="M51.276,244.341a1.858,1.858,0,0,0-2.628,0L45.186,247.8a1.858,1.858,0,0,0,2.628,2.628l3.462-3.462A1.859,1.859,0,0,0,51.276,244.341Z"
        data-name="Path 8" fill="#fff" id="Path_8" transform="translate(-44.641 -243.796)"/>
    </g>
  </g>
  <g data-name="Group 18" id="Group_18" transform="translate(0 28.741)">
    <g data-name="Group 17" id="Group_17">
      <path d="M6.755,154.655h-4.9a1.858,1.858,0,0,0,0,3.717h4.9a1.858,1.858,0,0,0,0-3.717Z" data-name="Path 9"
            fill="#fff" id="Path_9" transform="translate(0 -154.655)"/>
    </g>
  </g>
</svg>
