<svg xmlns="http://www.w3.org/2000/svg" width="130" height="107.213" viewBox="0 0 130 107.213">
  <g id="Group_261" data-name="Group 261" transform="translate(-112.953 -85)">
    <text id="EduSkills" transform="translate(112.953 184.213)" fill="#003147" font-size="31" font-family="SegoeUI-Bold, Segoe UI" font-weight="700"><tspan x="0" y="0"></tspan></text>
    <g id="light_bulb_-1" data-name="light bulb -1" transform="translate(153.131 83)">
      <g id="Group_2" data-name="Group 2" transform="translate(9.517 0)">
        <g id="Group_1" data-name="Group 1">
          <path id="Path_1" data-name="Path 1" d="M120.665,4.976A17.015,17.015,0,0,0,108.594,0h-.125A17.133,17.133,0,0,0,96.243,29.01a14.1,14.1,0,0,1,3.916,9.832v7.147a3.126,3.126,0,0,0,2.387,3.033v.953a3.308,3.308,0,0,0,3.3,3.3h5.463a3.308,3.308,0,0,0,3.3-3.3v-.947a3.126,3.126,0,0,0,2.411-3.039V38.842a14.466,14.466,0,0,1,4.023-9.945,17.133,17.133,0,0,0-.386-23.92Zm-8.13,45a1.224,1.224,0,0,1-1.223,1.223H105.85a1.224,1.224,0,0,1-1.223-1.223V49.11h7.909Zm2.411-3.987a1.041,1.041,0,0,1-1.04,1.04H103.28a1.041,1.041,0,0,1-1.04-1.04V40.071h12.707Zm-7.988-8V24.827H110.2V37.989h-3.242Zm12.58-10.522a16.579,16.579,0,0,0-4.569,10.522h-2.688V24.827h.935a3.02,3.02,0,0,0,3.017-3.017v-.161a3.017,3.017,0,1,0-6.033,0v1.1h-3.242v-1.1a3.02,3.02,0,0,0-3.016-3.017h-.2a3.02,3.02,0,0,0-3.016,3.017v.161a3.02,3.02,0,0,0,3.016,3.017h1.14V37.989h-2.659a16.129,16.129,0,0,0-4.475-10.422,14.952,14.952,0,0,1-4.2-10.853A15.17,15.17,0,0,1,108.484,2.083a15.052,15.052,0,0,1,11.054,25.385Zm-7.257-4.721v-1.1a.935.935,0,1,1,1.871,0v.161a.936.936,0,0,1-.935.935Zm-7.4-1.1v1.1h-1.14a.936.936,0,0,1-.935-.935v-.161a.936.936,0,0,1,.935-.935h.205A.937.937,0,0,1,104.877,21.649Z" transform="translate(-93.789 1.999)" fill="#003147"/>
        </g>
      </g>
      <g id="Group_4" data-name="Group 4" transform="translate(25.494 5.073)">
        <g id="Group_3" data-name="Group 3">
          <path id="Path_2" data-name="Path 2" d="M257.308,56.305a12.064,12.064,0,0,0-11.278-7.556,1.041,1.041,0,0,0,.007,2.081h.08a9.93,9.93,0,0,1,9.26,6.253,1.041,1.041,0,1,0,1.93-.778Z" transform="translate(-244.997 -48.749)" fill="#003147"/>
        </g>
      </g>
      <g id="Group_6" data-name="Group 6" transform="translate(36.595 16.093)">
        <g id="Group_5" data-name="Group 5">
          <path id="Path_3" data-name="Path 3" d="M353.446,154.956a1.04,1.04,0,1,0,.3.736A1.048,1.048,0,0,0,353.446,154.956Z" transform="translate(-351.67 -154.651)" fill="#003147"/>
        </g>
      </g>
      <g id="Group_8" data-name="Group 8" transform="translate(44.613 4.878)">
        <g id="Group_7" data-name="Group 7">
          <path id="Path_4" data-name="Path 4" d="M432.442,47.185a1.041,1.041,0,0,0-1.472,0l-1.939,1.939A1.041,1.041,0,0,0,430.5,50.6l1.939-1.939A1.04,1.04,0,0,0,432.442,47.185Z" transform="translate(-428.727 -46.88)" fill="#003147"/>
        </g>
      </g>
      <g id="Group_10" data-name="Group 10" transform="translate(44.613 25.369)">
        <g id="Group_9" data-name="Group 9">
          <path id="Path_5" data-name="Path 5" d="M432.442,246.042,430.5,244.1a1.041,1.041,0,1,0-1.472,1.472l1.939,1.939a1.041,1.041,0,1,0,1.472-1.472Z" transform="translate(-428.727 -243.798)" fill="#003147"/>
        </g>
      </g>
      <g id="Group_12" data-name="Group 12" transform="translate(48.455 16.093)">
        <g id="Group_11" data-name="Group 11">
          <path id="Path_6" data-name="Path 6" d="M469.433,154.655h-2.742a1.041,1.041,0,0,0,0,2.081h2.742a1.041,1.041,0,0,0,0-2.081Z" transform="translate(-465.651 -154.655)" fill="#003147"/>
        </g>
      </g>
      <g id="Group_14" data-name="Group 14" transform="translate(4.645 4.878)">
        <g id="Group_13" data-name="Group 13">
          <path id="Path_7" data-name="Path 7" d="M48.356,49.125l-1.939-1.939a1.041,1.041,0,0,0-1.472,1.472L46.885,50.6a1.041,1.041,0,0,0,1.472-1.472Z" transform="translate(-44.641 -46.881)" fill="#003147"/>
        </g>
      </g>
      <g id="Group_16" data-name="Group 16" transform="translate(4.645 25.369)">
        <g id="Group_15" data-name="Group 15">
          <path id="Path_8" data-name="Path 8" d="M48.356,244.1a1.04,1.04,0,0,0-1.472,0l-1.939,1.939a1.041,1.041,0,0,0,1.472,1.472l1.939-1.939A1.041,1.041,0,0,0,48.356,244.1Z" transform="translate(-44.641 -243.796)" fill="#003147"/>
        </g>
      </g>
      <g id="Group_18" data-name="Group 18" transform="translate(0 16.093)">
        <g id="Group_17" data-name="Group 17">
          <path id="Path_9" data-name="Path 9" d="M3.782,154.655H1.041a1.041,1.041,0,0,0,0,2.081H3.782a1.041,1.041,0,0,0,0-2.081Z" transform="translate(0 -154.655)" fill="#003147"/>
        </g>
      </g>
    </g>
  </g>
</svg>
